General
      Complete name : Foreign.Correspondent.1940.DVDRip.H264.AAC.Gopo.mp4
      Format : MPEG-4
      Format profile : Base Media
      Codec ID : isom
      File size : 1.37 GiB
      Duration : 1h 54mn
      Overall bit rate : 1 717 Kbps
      Encoded date : UTC 2010-04-11 14:27:44
      Tagged date : UTC 2010-04-11 14:27:44
   Video #1
      ID : 1
      Format : AVC
      Format/Info : Advanced Video Codec
      Format profile : High@L4.1
      Format settings, CABAC : Yes
      Format settings, ReFrames : 5 frames
      Codec ID : avc1
      Codec ID/Info : Advanced Video Coding
      Duration : 1h 54mn
      Bit rate mode : Variable
      Bit rate : 1 458 Kbps
      Maximum bit rate : 7 134 Kbps
      Width : 720 pixels
      Height : 544 pixels
      Display aspect ratio : 4:3
      Frame rate mode : Constant
      Frame rate : 25.000 fps
      Resolution : 24 bits
      Colorimetry : 4:2:0
      Scan type : Progressive
      Bits/(Pixel*Frame) : 0.149
      Stream size : 1.17 GiB (85%)
      Writing library : x264 core 92 r1523 25ca5b0
      Encoding settings : cabac=1 / ref=5 / deblock=1:-3:1 / analyse=0x3:0x133 / me=umh / subme=7 / psy=1 / psy_rd=1.00:0.08 / mixed_ref=1 / me_range=32 / chroma_me=1 / trellis=2 / 8x8dct=1 / cqm=0 / deadzone=21,11 / fast_pskip=0 / chroma_qp_offset=-3 / threads=3 / sliced_threads=0 / nr=0 / decimate=1 / interlaced=0 / constrained_intra=0 / bframes=3 / b_pyramid=2 / b_adapt=2 / b_bias=0 / direct=1 / wpredb=1 / wpredp=2 / keyint=250 / keyint_min=25 / scenecut=40 / intra_refresh=0 / rc_lookahead=40 / rc=2pass / mbtree=1 / bitrate=1458 / ratetol=1.0 / qcomp=0.60 / qpmin=10 / qpmax=51 / qpstep=4 / cplxblur=20.0 / qblur=0.5 / vbv_maxrate=50000 / vbv_bufsize=50000 / ip_ratio=1.40 / aq=1:1.00 / nal_hrd=none
      Encoded date : UTC 2010-04-10 16:58:14
      Tagged date : UTC 2010-04-11 14:30:24
   Audio #2
      ID : 2
      Format : AC-3
      Format/Info : Audio Coding 3
      Codec ID : ac-3
      Duration : 1h 54mn
      Bit rate mode : Constant
      Bit rate : 256 Kbps
      Channel(s) : 2 channels
      Channel positions : L R
      Sampling rate : 48.0 KHz
      Resolution : 16 bits
      Stream size : 210 MiB (15%)
      Title : Imported with GPAC 0.4.6-DEV (build 1)
      Encoded date : UTC 2010-04-11 14:29:34
      Tagged date : UTC 2010-04-11 14:30:2
	Sample : YES
	Subtitle : English,Romanian

PLOT
On the eve of WW2, a young American reporter tries to expose enemy agents in London.
CASTING 

      Joel McCrea	... 	John Jones
	Laraine Day	... 	Carol Fisher
	Herbert Marshall	... 	Stephen Fisher
	George Sanders	... 	Ffolliott (ffollliott)
	Albert Bassermann	... 	Van Meer (as Albert Basserman)
	Robert Benchley	... 	Stebbins
	Edmund Gwenn	... 	Rowley
	Eduardo Ciannelli	... 	Mr. Krug (as Eduardo Cianelli)
	Harry Davenport	... 	Mr. Powers
	Martin Kosleck	... 	Tramp
	Frances Carson	... 	Mrs. Sprague
	Ian Wolfe	... 	Stiles
	Charles Wagenheim	... 	Assassin
	Eddie Conrad	... 	Latvian (as Edward Conrad)
	Charles Halton	... 	Bradley

SOURCE: FOREIGN CORRESPONDENT (1940) DVD PAL ESP-ENG-CAT

Notes: For best performance I suggest you to use KMPlayer(find it with google) for playback
These movies were made especially for PC and they don't play on a PS3.If you want to re-encode for PS3 or test for other devices be my guests.

I'll ask everybody to stop with the ''it doesn't work'',''it's out of sync'' comments because I tested the movies before I uploaded them and they work fine.